<svg xmlns="http://www.w3.org/2000/svg" width="312" height="306" viewBox="355 163 312 306" preserveAspectRatio="xMidYMid meet">

<g transform="translate(0.000000,1024.000000) scale(0.100000,-0.100000)" fill="#FFFFFF" stroke="none">

<path d="M5769 8428 c-2 -130 -8 -160 -37 -173 -23 -10 -29 -34 -13 -50 13
-14 1 -425 -12 -425 -6 0 -58 29 -116 63 -58 35 -131 78 -161 95 l-55 30 -80
-13 c-44 -7 -104 -22 -133 -33 l-53 -20 -50 20 -50 21 2 59 c2 35 -2 63 -9 70
-7 7 -12 38 -12 69 0 39 -4 59 -14 62 -9 4 -16 34 -21 89 -8 81 -9 82 -16 38
-4 -25 -8 -62 -8 -83 -1 -30 -6 -40 -21 -44 -17 -5 -20 -14 -20 -64 0 -32 -4
-61 -10 -64 -6 -4 -10 8 -10 29 0 60 -6 66 -71 66 l-59 0 0 -50 c0 -38 -4 -50
-15 -50 -11 0 -15 13 -15 54 0 39 -5 60 -17 72 -12 11 -22 45 -28 93 l-11 76
-8 -75 c-4 -41 -14 -82 -22 -91 -11 -12 -16 -60 -21 -192 l-6 -177 -39 0 -39
0 2 78 c2 73 0 81 -30 122 -26 37 -31 52 -31 102 0 76 -16 67 -22 -12 -3 -47
-10 -66 -30 -88 -25 -26 -26 -30 -21 -127 6 -114 7 -112 -72 -140 -67 -25 -75
-32 -75 -71 0 -35 -22 -48 -34 -19 -4 10 -20 15 -51 15 -63 0 -81 -12 -89 -59
-7 -44 -10 -46 -101 -54 -31 -3 -104 -27 -190 -63 l-140 -59 -3 -57 c-2 -32 1
-58 5 -58 35 0 1167 304 1303 350 59 20 63 20 115 4 49 -16 58 -16 116 -1 l63
16 116 -34 c63 -19 221 -63 350 -99 129 -35 327 -90 439 -121 255 -71 434
-115 440 -109 6 5 5 104 0 108 -23 17 -306 126 -329 126 -21 0 -54 18 -112 60
-81 60 -121 73 -146 48 -9 -9 -27 -5 -76 16 l-64 28 -6 81 c-13 179 -16 386
-6 392 17 11 11 47 -9 52 -22 6 -27 28 -37 176 -3 53 -10 97 -15 97 -5 0 -10
-46 -10 -102z m-931 -325 c-2 -23 -8 -29 -35 -31 -31 -3 -33 -1 -33 27 0 29 3
31 36 31 33 0 35 -2 32 -27z"/>

<path d="M5054 7571 c-2 -2 -4 -115 -4 -250 l-1 -246 -35 -23 -36 -22 -266
121 c-504 230 -450 209 -509 196 -28 -7 -54 -14 -57 -17 -3 -3 162 -84 366
-180 474 -223 430 -199 433 -242 2 -36 1 -37 -94 -89 -53 -29 -153 -85 -222
-123 -69 -39 -198 -111 -287 -161 -89 -49 -161 -92 -162 -95 0 -3 9 -20 20
-37 l20 -33 57 34 c32 18 112 63 178 98 66 36 212 115 324 177 l204 112 41
-22 41 -21 -4 -379 c-2 -209 0 -395 3 -415 l7 -35 52 3 52 3 0 411 0 412 41
21 41 22 384 -209 384 -210 17 27 c10 14 18 31 18 37 0 6 -173 106 -385 224
l-385 213 0 36 0 37 173 79 c94 43 240 111 322 150 83 40 187 89 232 110 45
21 80 41 78 45 -5 9 -91 25 -116 23 -8 -1 -101 -41 -205 -89 -104 -47 -263
-119 -352 -160 l-164 -73 -39 26 -39 26 0 246 0 247 -61 0 c-33 -1 -62 -3 -65
-5z"/>

<path d="M3920 7279 c-63 -17 -120 -37 -126 -45 -22 -28 -37 -201 -30 -333 11
-208 49 -350 148 -543 186 -362 534 -618 950 -699 126 -24 372 -26 503 -3 305
52 611 226 800 454 214 258 315 532 315 852 0 124 -16 258 -33 275 -11 10
-248 73 -255 68 -2 -2 7 -38 18 -81 31 -114 38 -330 15 -455 -77 -422 -384
-744 -825 -867 -86 -24 -111 -27 -270 -27 -188 0 -239 8 -378 56 -357 122
-622 406 -719 767 -23 86 -27 116 -27 262 0 138 4 180 22 253 12 49 22 90 22
93 0 6 -4 5 -130 -27z"/>

</g>
</svg>